<?xml version="1.0" encoding="utf-8" ?>
<svg
  version="1.1"
  id="atomforce"
  xmlns="http://www.w3.org/2000/svg"
  xmlns:xlink="http://www.w3.org/1999/xlink"
  x="0px"
  y="0px"
  viewBox="0 0 799 273.5"
  style="enable-background:new 0 0 799 273.5;"
  xml:space="preserve"
>
<style type="text/css">
.st0 {
  fill: url(#SVGID_1_);
}
.st1 {
  fill: url(#SVGID_2_);
}
.st2 {
  fill: url(#SVGID_3_);
}
.st3 {
  fill: url(#SVGID_4_);
}
.st4 {
  fill: url(#SVGID_5_);
}
.st5 {
  fill: url(#SVGID_6_);
}
.st6 {
  fill: url(#SVGID_7_);
}
.st7 {
  fill: url(#SVGID_8_);
}
.st8 {
  fill: url(#SVGID_9_);
}
.st9 {
  fill: url(#SVGID_10_);
}
.st10 {
  fill: url(#SVGID_11_);
}
.st11 {
  fill: url(#SVGID_12_);
}
.st12 {
  fill: url(#SVGID_13_);
}
.st13 {
  fill: url(#SVGID_14_);
}
.st14 {
  fill: url(#SVGID_15_);
}
.st15 {
  fill: url(#SVGID_16_);
}
  </style>
<linearGradient id="SVGID_1_" gradientUnits="userSpaceOnUse" x1="109.8" y1="136.7" x2="140.4" y2="136.7">
	<stop offset="0.5575" style="stop-color:#30A3D7;stop-opacity:0.85" />
	<stop offset="1" style="stop-color:#0075BE" />
</linearGradient>
<circle class="st0" cx="125.1" cy="136.7" r="15.3" />
<linearGradient id="SVGID_2_" gradientUnits="userSpaceOnUse" x1="65.0997" y1="215.4565" x2="179.8" y2="215.4565">
	<stop offset="0.5575" style="stop-color:#30A3D7;stop-opacity:0.85" />
	<stop offset="1" style="stop-color:#0075BE" />
</linearGradient>
<path
    class="st1"
    d="M169.4,221.2c-11.2,21.9-25.3,35.5-38,36.8c-28.6,2.8-49.8-44.3-59.8-97.8c-0.7-3.9-6.5-3.4-6.5,0.5v0.4
	c-0.1,62,27.8,112.3,62.4,112.3c21.8,0,41.1-20,52.3-50.4C176.5,222.6,173,222,169.4,221.2z"
  />
<linearGradient id="SVGID_3_" gradientUnits="userSpaceOnUse" x1="114.9221" y1="178.2944" x2="250.1759" y2="178.2944">
	<stop offset="0.5575" style="stop-color:#30A3D7;stop-opacity:0.85" />
	<stop offset="1" style="stop-color:#0075BE" />
</linearGradient>
<path
    class="st2"
    d="M228.1,132.5c-2.1,2.8-4.5,5.5-6.9,8.3c13,20,17.7,38.4,12.6,49.9c-11.6,26.3-63,21.7-114.5,4.3
	c-3.7-1.3-6.2,4-2.7,5.9l0.3,0.2c54,30.4,111.5,30.7,128.5,0.6C256,182.9,248.4,156.9,228.1,132.5z"
  />
<linearGradient id="SVGID_4_" gradientUnits="userSpaceOnUse" x1="170.9254" y1="110.811" x2="247.2908" y2="110.811">
	<stop offset="0.5575" style="stop-color:#30A3D7;stop-opacity:0.85" />
	<stop offset="1" style="stop-color:#0075BE" />
</linearGradient>
<path
    class="st3"
    d="M242.4,66.5c-10.8-18.9-37.6-25.6-69.3-20.3c1.3,3.2,2.6,6.6,3.6,10c24.3-1.1,43,4.3,50.3,14.6
	c16.6,23.4-13.5,65.3-54.9,100.6c-3,2.5,0.3,7.3,3.7,5.3l0.3-0.1C230,145.7,259.6,96.5,242.4,66.5z"
  />
<linearGradient id="SVGID_5_" gradientUnits="userSpaceOnUse" x1="70.2" y1="57.8935" x2="185.1" y2="57.8935">
	<stop offset="0.5575" style="stop-color:#30A3D7;stop-opacity:0.85" />
	<stop offset="1" style="stop-color:#0075BE" />
</linearGradient>
<path
    class="st4"
    d="M122.5,0c-21.8,0-41.1,20.1-52.3,50.5c3.4,0.4,6.9,1,10.5,1.8c11.2-21.9,25.2-35.6,37.9-36.8
	c28.6-2.8,49.9,44.2,60,97.6c0.7,3.9,6.5,3.4,6.5-0.5v-0.4C185.1,50.2,157,0,122.5,0z"
  />
<linearGradient id="SVGID_6_" gradientUnits="userSpaceOnUse" x1="2.8182" y1="162.6564" x2="79.1746" y2="162.6564">
	<stop offset="0.5575" style="stop-color:#30A3D7;stop-opacity:0.85" />
	<stop offset="1" style="stop-color:#0075BE" />
</linearGradient>
<path
    class="st5"
    d="M73.4,217.2c-24.3,1.1-43-4.3-50.3-14.6C6.4,179.2,36.6,137.4,78,102.1c3-2.6-0.3-7.3-3.7-5.4L74,96.9
	C20.2,127.7-9.5,177,7.7,207c10.8,18.9,37.6,25.6,69.3,20.3C75.7,224,74.5,220.7,73.4,217.2z"
  />
<linearGradient id="SVGID_7_" gradientUnits="userSpaceOnUse" x1="-1.233147e-02" y1="95.1556" x2="135.278" y2="95.1556">
	<stop offset="0.5575" style="stop-color:#30A3D7;stop-opacity:0.85" />
	<stop offset="1" style="stop-color:#0075BE" />
</linearGradient>
<path
    class="st6"
    d="M29,132.7c-13-20-17.7-38.4-12.6-49.9c11.6-26.3,63-21.7,114.5-4.3c3.7,1.3,6.2-4,2.7-5.9l-0.3-0.2
	C79.2,42,21.7,41.7,4.7,71.8C-5.8,90.5,1.8,116.6,22,140.9C24.1,138.2,26.5,135.4,29,132.7z"
  />
<linearGradient id="SVGID_8_" gradientUnits="userSpaceOnUse" x1="313.5" y1="137.15" x2="364.7" y2="137.15">
	<stop offset="0.5575" style="stop-color:#30A3D7;stop-opacity:0.85" />
	<stop offset="1" style="stop-color:#0075BE" />
</linearGradient>
<path class="st7" d="M338.9,119.7L324.7,165h-11.2l19.1-54.5c2.1-0.8,4.3-1.2,6.6-1.2c4.1,0,6.7,1.7,7.8,5.1l17.7,50.5H353
	L338.9,119.7z" />
<linearGradient id="SVGID_9_" gradientUnits="userSpaceOnUse" x1="365.7906" y1="137.4446" x2="411.7392" y2="137.4446">
	<stop offset="0.5575" style="stop-color:#30A3D7;stop-opacity:0.85" />
	<stop offset="1" style="stop-color:#0075BE" />
</linearGradient>
<path
    class="st8"
    d="M383.2,119H366c-0.2-1.1-0.2-2.2-0.2-3.3c-0.1-1.7,0.6-3.3,1.9-4.3c1.5-1.1,3.3-1.7,5.1-1.6h38.7
	c0.2,1.2,0.3,2.4,0.2,3.6c0.1,1.6-0.6,3.1-1.8,4.2c-1.4,1.1-3.2,1.6-5,1.5h-10.4v46h-11.4L383.2,119L383.2,119z"
  />
<linearGradient id="SVGID_10_" gradientUnits="userSpaceOnUse" x1="419.5749" y1="137.7072" x2="469.6" y2="137.7072">
	<stop offset="0.5575" style="stop-color:#30A3D7;stop-opacity:0.85" />
	<stop offset="1" style="stop-color:#0075BE" />
</linearGradient>
<path
    class="st9"
    d="M469.6,137.2c0,9.1-2.2,16.3-6.6,21.5s-10.6,7.8-18.7,7.8c-4.8,0.2-9.5-1.1-13.5-3.5c-3.8-2.4-6.7-6-8.4-10.1
	c-2-4.9-3-10.1-2.8-15.4c-0.1-5.3,1-10.5,3.1-15.3c1.9-4.1,5-7.6,8.8-9.9c4.1-2.3,8.7-3.5,13.5-3.4c7.9,0,13.9,2.5,18.2,7.5
	S469.6,128.2,469.6,137.2z M457.9,137.3c0-6.3-1.1-11.1-3.3-14.5c-2.1-3.3-5.8-5.2-9.7-5.1c-4.5,0-7.8,1.7-10.2,5.1
	c-2.3,3.4-3.5,8.2-3.5,14.5s1.2,11.3,3.5,14.8c3.6,5.5,11,6.9,16.4,3.3c1.3-0.9,2.4-2,3.3-3.3C456.8,148.6,458,143.6,457.9,137.3
	L457.9,137.3z"
  />
<linearGradient id="SVGID_11_" gradientUnits="userSpaceOnUse" x1="485.9" y1="137.2905" x2="544.1" y2="137.2905">
	<stop offset="0.5575" style="stop-color:#30A3D7;stop-opacity:0.85" />
	<stop offset="1" style="stop-color:#0075BE" />
</linearGradient>
<path
    class="st10"
    d="M495.9,109.4c1.4,0,2.8,0.3,3.9,1.1c1.2,0.9,2.2,2.1,2.7,3.6l12.5,29.5l12.6-29.2c1.5-3.3,3.8-5,6.8-5
	c1.9-0.1,3.9,0.2,5.7,0.8l4,54.9h-10.8l-2.6-36.6l-11.2,25.1H510l-10.9-24l-2.4,35.6h-10.8l4-54.9
	C491.9,109.6,493.9,109.3,495.9,109.4z"
  />
<linearGradient id="SVGID_12_" gradientUnits="userSpaceOnUse" x1="542.5" y1="139.3047" x2="613.6" y2="139.3047">
	<stop offset="0.5575" style="stop-color:#30A3D7;stop-opacity:0.85" />
	<stop offset="1" style="stop-color:#0075BE" />
</linearGradient>
<path
    class="st11"
    d="M555.7,191.4c-3.4,0.1-6.8-0.6-9.9-2.2c-2.3-1.3-3.3-3-3.3-5.1c0-1.9,1-3.6,3.1-5.2c0.9,1.1,2.1,2,3.3,2.7
	c1.8,1,3.7,1.4,5.7,1.4c2.8,0.1,5.5-1.2,7.2-3.4c1.7-2.1,2.8-5.1,3.5-9.3l10.3-61.6c1.2-7.5,3.8-13,7.5-16.4s9-5.1,15.7-5.1
	c5.8,0,10,1.3,12.7,3.8c1.3,1.1,2.1,2.7,2.1,4.4c0,1.3-0.6,2.6-1.5,3.5c-0.9,1-2,1.7-3.3,2.2c-0.9-1.7-2.2-3.1-3.7-4.1
	c-2-1.1-4.2-1.7-6.5-1.6c-3.3,0-5.8,1-7.6,2.9s-2.8,4.6-3.5,8.5l-1.4,8.6h17l-1.3,8.1h-17l-7.6,46.3c-1.2,7.5-3.7,13.1-7.2,16.6
	S561.8,191.4,555.7,191.4z"
  />
<linearGradient id="SVGID_13_" gradientUnits="userSpaceOnUse" x1="607.3942" y1="137.3002" x2="653.8057" y2="137.3002">
	<stop offset="0.5575" style="stop-color:#30A3D7;stop-opacity:0.85" />
	<stop offset="1" style="stop-color:#0075BE" />
</linearGradient>
<path
    class="st12"
    d="M626.5,163.7c-6.3,0-11-1.7-14.2-5.2s-4.9-8.7-4.9-15.3c-0.1-5.9,1.1-11.8,3.5-17.2c2.1-4.6,5.5-8.5,9.7-11.2
	c4.2-2.6,9.2-4,14.1-3.9c6.2,0,10.8,1.8,14.1,5.4s5,8.7,5,15.2c0.1,6-1.1,11.9-3.5,17.3c-2,4.6-5.3,8.4-9.5,11.1
	C636.5,162.5,631.5,163.8,626.5,163.7z M633.4,118.8c-4.5,0-8.1,2.5-10.9,7.3c-2.5,4.5-3.8,10.5-3.8,17.8c0,3.6,0.8,6.5,2.3,8.6
	c1.6,2.2,4.1,3.5,6.9,3.5c4.5,0,8.1-2.5,10.9-7.3c2.5-4.5,3.8-10.5,3.8-17.8c0-3.6-0.8-6.5-2.3-8.6
	C638.7,120.1,636.1,118.7,633.4,118.8L633.4,118.8z"
  />
<linearGradient id="SVGID_14_" gradientUnits="userSpaceOnUse" x1="662.9" y1="136.6" x2="704.4108" y2="136.6">
	<stop offset="0.5575" style="stop-color:#30A3D7;stop-opacity:0.85" />
	<stop offset="1" style="stop-color:#0075BE" />
</linearGradient>
<path
    class="st13"
    d="M662.9,162l8.2-49.7c1.3-0.2,2.7-0.2,4-0.2c3.6,0,5.6,1.6,6.3,5l0.7,3.5l2.5-2.6c1.9-2.1,4.1-4,6.6-5.4
	c1.9-0.9,4-1.4,6.1-1.4c2.4,0,4.2,0.5,5.4,1.6c1.2,1.2,1.8,2.8,1.7,4.4c0.1,1.7-0.5,3.4-1.5,4.8c-1.1,1.3-2.5,2.3-4,3.1
	c-1.3-3.2-4.6-5.3-8.1-5.1c-2.9,0-5.7,1.3-7.6,3.5c-2.1,2.6-3.5,5.7-3.9,9l-4.9,29.5H662.9z"
  />
<linearGradient id="SVGID_15_" gradientUnits="userSpaceOnUse" x1="707.4946" y1="137.2975" x2="749.5" y2="137.2975">
	<stop offset="0.5575" style="stop-color:#30A3D7;stop-opacity:0.85" />
	<stop offset="1" style="stop-color:#0075BE" />
</linearGradient>
<path
    class="st14"
    d="M727.1,163.7c-6.4,0-11.3-1.8-14.6-5.3s-5-8.7-5-15.3c-0.1-5.9,1.2-11.7,3.7-17c2.2-4.6,5.7-8.5,10-11.3
	c4.2-2.6,9.2-4,14.2-3.9c6.3,0,10.6,1.9,13,5.7c0.7,1,1,2.1,1.1,3.3c0,1.1-0.4,2.1-1.1,2.9c-1,1-2.2,1.8-3.5,2.3
	c-0.8-1.7-2.1-3.2-3.6-4.4c-2.1-1.3-4.5-2-6.9-1.9c-4.8,0-8.6,2.6-11.5,7.6c-2.7,4.7-4.1,10.6-4.1,17.7c-0.2,3.1,0.8,6.1,2.7,8.5
	c1.9,2.2,4.6,3.4,7.5,3.3c4.7,0,8.8-2.1,12.1-6.4c3.6,1.9,3.6,3.8,3.6,4.5c0,1.8-1,3.6-3.2,5.3C737.9,162.2,733.1,163.7,727.1,163.7
	z"
  />
<linearGradient id="SVGID_16_" gradientUnits="userSpaceOnUse" x1="755.3947" y1="137.3475" x2="798.9189" y2="137.3475">
	<stop offset="0.5575" style="stop-color:#30A3D7;stop-opacity:0.85" />
	<stop offset="1" style="stop-color:#0075BE" />
</linearGradient>
<path
    class="st15"
    d="M775.5,163.7c-6.6,0-11.6-1.8-15-5.3s-5.1-8.6-5.1-15.2c-0.1-5.9,1.2-11.7,3.9-17c2.3-4.7,5.9-8.6,10.4-11.3
	c4.5-2.6,9.6-4,14.8-3.9c4.5,0,8,1.1,10.6,3.5c2.6,2.3,4,5.6,3.8,9c0,5.9-2.2,10.3-6.8,13.4c-4.8,3.2-11.5,4.9-20.1,4.9
	c-1.7,0-2.9,0-3.7-0.1l-2-0.2v2.7c-0.1,3.2,1,6.3,3.2,8.7c2.1,2.2,5,3.4,8,3.3c2.7,0,5.4-0.6,7.9-1.9c2.2-1.2,4.1-2.9,5.8-4.8
	c3.4,2.1,3.4,4,3.4,4.7c0,2-1.1,3.7-3.5,5.3C787,162.3,781.8,163.7,775.5,163.7z M782.2,118.6c-3.6,0-7.1,1.6-9.4,4.3
	c-2.7,3.2-4.6,7-5.3,11.1l-0.5,2.1l2.1,0.2c1,0.1,2.1,0.1,3.5,0.1c4,0.1,7.9-0.9,11.4-2.9c3.4-2.1,5.1-4.9,5.1-8.4
	c0.1-1.8-0.6-3.6-1.9-4.8C785.8,119.1,784,118.5,782.2,118.6L782.2,118.6z"
  />
</svg>
