<?xml version="1.0" encoding="utf-8" ?>
<svg
  version="1.1"
  id="atomforce-logo-popover"
  xmlns="http://www.w3.org/2000/svg"
  xmlns:xlink="http://www.w3.org/1999/xlink"
  x="0px"
  y="0px"
  viewBox="0 0 28 28"
  style="enable-background:new 0 0 28 28;"
  xml:space="preserve"
>
<style type="text/css">
.st0 {
  fill: #00a1e0;
}
.st1 {
  fill: #ffffff;
}
  </style>
<g>
	<circle class="st0" cx="14" cy="14" r="14" />
</g>
<path
    class="st1"
    d="M12.3,9.1C13,8.5,13.9,8,14.9,8c1.3,0,2.5,0.7,3.1,1.8c0.5-0.2,1.1-0.4,1.7-0.4c2.4,0,4.3,1.9,4.3,4.3
	s-1.9,4.3-4.3,4.3c-0.3,0-0.6,0-0.9-0.1c-0.5,1-1.6,1.6-2.8,1.6c-0.5,0-1-0.1-1.4-0.3c-0.5,1.3-1.8,2.2-3.3,2.2
	c-1.5,0-2.9-1-3.4-2.4c-0.2,0-0.5,0.1-0.7,0.1c-1.8,0-3.3-1.5-3.3-3.4c0-1.3,0.7-2.3,1.7-2.9c-0.2-0.5-0.3-1-0.3-1.5
	c0-2.1,1.7-3.9,3.9-3.9C10.5,7.6,11.6,8.2,12.3,9.1"
  />
</svg>
